<svg width="159" height="159" viewBox="0 0 159 159" fill="none" xmlns="http://www.w3.org/2000/svg">
<rect width="159" height="159" fill="#293742"/>
<g clip-path="url(#clip0_201_128)">
<path d="M73.9714 37.093L35.5882 53.0666C33.4538 53.9548 33.4759 57.0039 35.6241 57.8605L74.1674 73.2328C77.5539 74.5836 81.3254 74.5836 84.712 73.2328L123.256 57.8601C125.403 57.0043 125.426 53.9552 123.291 53.0666L84.9083 37.0926C81.4067 35.6354 77.4731 35.6354 73.9714 37.0926" fill="#FFBF00"/>
<path d="M82.8595 81.6272V120.029C82.8595 121.856 84.6902 123.107 86.3784 122.434L129.328 105.667C129.807 105.476 130.218 105.145 130.507 104.716C130.797 104.288 130.951 103.781 130.951 103.263V64.8605C130.951 63.0339 129.12 61.7835 127.432 62.4565L84.4826 79.2228C84.0036 79.4139 83.5928 79.7453 83.3033 80.174C83.0138 80.6027 82.8591 81.109 82.8591 81.6272" fill="#26B5F8"/>
<path d="M72.8303 83.6088L60.0841 89.7984L58.7898 90.4276L31.8826 103.394C30.1771 104.221 28 102.971 28 101.066V65.0216C28 64.3321 28.3516 63.7368 28.8232 63.2885C29.0164 63.0951 29.2355 62.9299 29.4742 62.7976C30.1171 62.4096 31.0345 62.306 31.8142 62.6164L72.6159 78.8752C74.69 79.7027 74.8529 82.6255 72.8303 83.6084" fill="#ED3049"/>
<path d="M72.8303 83.6088L60.0841 89.7984L28.8228 63.2888C29.0159 63.0955 29.2351 62.9303 29.4737 62.798C30.1167 62.4099 31.034 62.3064 31.8138 62.6167L72.6155 78.8756C74.6895 79.7031 74.8525 82.6259 72.8299 83.6088" fill="black" fill-opacity="0.25"/>
</g>
<defs>
<clipPath id="clip0_201_128">
<rect width="103" height="87" fill="white" transform="translate(28 36)"/>
</clipPath>
</defs>
</svg>
