<svg width="159" height="159" viewBox="0 0 159 159" fill="none" xmlns="http://www.w3.org/2000/svg">
<rect width="159" height="159" fill="#00758F"/>
<path fill-rule="evenodd" clip-rule="evenodd" d="M52.0419 48.6019C51.0154 48.5986 49.9929 48.7289 49 48.9894V49.125H49.1473C49.8584 50.1984 50.6512 51.2154 51.5187 52.1669C52.1155 53.3526 52.6347 54.5345 53.2276 55.7202L53.3749 55.5691C53.9253 55.1322 54.3562 54.5629 54.6272 53.9144C54.8983 53.266 55.0007 52.5595 54.9249 51.8607C54.6004 51.3603 54.3028 50.8429 54.0336 50.3107C53.588 49.5706 52.6231 49.1986 52.0302 48.6057" fill="white"/>
<path fill-rule="evenodd" clip-rule="evenodd" d="M125.648 113.268C120.76 112.925 115.855 113.633 111.264 115.345C110.151 115.791 108.377 115.791 108.222 117.197C108.818 117.79 108.888 118.747 109.411 119.573C110.426 121.291 111.731 122.821 113.267 124.095C114.817 125.28 116.367 126.462 118.014 127.501C120.901 129.287 124.167 130.322 126.981 132.1C128.616 133.139 130.243 134.472 131.879 135.588C132.692 136.181 133.208 137.138 134.246 137.525V137.301C133.941 136.477 133.564 135.682 133.119 134.925C132.378 134.189 131.634 133.519 130.89 132.779C128.717 129.904 126.116 127.38 123.179 125.292C120.804 123.657 115.611 121.417 114.654 118.705L114.503 118.553C116.241 118.307 117.954 117.908 119.622 117.36C122.141 116.693 124.439 116.845 127.031 116.197C128.221 115.899 130.371 115.159 130.371 115.159V113.996C129.046 112.679 128.097 110.916 126.702 109.672C122.906 106.359 118.862 103.343 114.604 100.651C112.329 99.1823 109.396 98.2368 106.974 96.9851C106.098 96.5434 104.649 96.3264 104.118 95.5901C102.914 93.823 101.905 91.9299 101.111 89.9443C98.9431 85.7703 96.9383 81.5136 95.101 77.1839C94.0184 74.3273 92.7698 71.5364 91.3616 68.8255C84.5661 57.2721 74.7575 47.7835 62.985 41.375C60.0145 39.9372 56.8564 38.9249 53.6036 38.368C51.7668 38.2905 49.9378 38.1471 48.105 38.0774C46.9218 37.3022 45.7964 36.4423 44.7376 35.5044C40.5448 32.85 29.7723 27.146 26.6878 34.6984C24.7116 39.4685 29.6251 44.1573 31.3107 46.5791C32.732 48.2868 33.9844 50.1283 35.0501 52.0778C35.5655 53.3255 35.7127 54.6469 36.2126 55.9528C37.2882 59.305 38.5654 62.5893 40.0372 65.7875C40.8244 67.3682 41.7312 68.8865 42.7497 70.329C43.3426 71.1389 44.3656 71.4915 44.5865 72.8284C43.7738 74.5751 43.2053 76.4253 42.897 78.327C41.6161 82.3721 41.1447 86.6299 41.5097 90.8573C41.8747 95.0846 43.069 99.1986 45.0243 102.964C46.1868 104.797 48.9846 108.831 52.724 107.289C56.0216 105.971 55.2892 101.79 56.2425 98.1283C56.4595 97.2409 56.3161 96.6596 56.754 96.0745V96.7875C56.754 96.7875 58.6256 100.899 59.5556 102.988C62.0847 106.82 65.2266 110.211 68.8556 113.024C70.2911 114.277 71.4475 115.818 72.2501 117.546V118.875H73.9047C73.8703 118.276 73.7041 117.691 73.4181 117.164C73.1322 116.636 72.7333 116.178 72.2501 115.822C70.8932 114.425 69.6505 112.922 68.534 111.327C65.5008 107.007 62.8259 102.446 60.536 97.6904C59.3735 95.3654 58.3931 92.8156 57.4631 90.4945C57.0368 89.5994 57.0368 88.247 56.32 87.782C54.9963 89.3482 53.8476 91.0542 52.8945 92.8699C51.7374 96.5397 51.0639 100.345 50.8911 104.189C50.6082 104.266 50.7477 104.189 50.6082 104.336C48.3258 103.735 47.5392 101.267 46.679 99.1745C44.4567 92.7209 44.2325 85.747 46.0357 79.164C46.5317 77.5946 48.6823 72.6501 47.8221 71.1505C47.392 69.7206 45.9621 68.903 45.1793 67.7754C44.1801 66.2584 43.3202 64.6541 42.6102 62.982C40.9091 58.8125 40.0488 54.1625 38.1966 49.962C37.1713 47.9418 35.9774 46.0117 34.6277 44.1921C33.1347 42.3745 31.8178 40.4192 30.6946 38.3525C30.3381 37.5271 29.8382 36.1786 30.4078 35.2796C30.4463 35.0299 30.565 34.7995 30.7461 34.6233C30.9272 34.4471 31.1608 34.3347 31.4115 34.3031C32.3337 33.4816 34.9803 34.5279 35.9065 34.9774C38.3956 35.9573 40.7665 37.2142 42.9745 38.7245C43.9742 39.4763 46.3302 41.3789 46.3302 41.3789H47.0277C49.3992 41.8943 52.0652 41.5223 54.2972 42.1926C58.0553 43.4454 61.6417 45.1638 64.9728 47.3076C74.7909 53.5663 82.7724 62.3181 88.1027 72.6695C88.994 74.3706 89.3698 75.9323 90.1836 77.707C91.7336 81.3495 93.6711 85.0695 95.2211 88.6113C96.5885 92.1153 98.3569 95.4494 100.491 98.5468C101.599 100.097 106.052 100.918 108.055 101.732C109.795 102.334 111.502 103.026 113.17 103.805C115.693 105.355 118.208 107.142 120.583 108.843C121.765 109.734 125.473 111.586 125.698 113.07" fill="white"/>
</svg>
