<svg width="201" height="200" viewBox="0 0 201 200" fill="none" xmlns="http://www.w3.org/2000/svg">
<rect width="200" height="200" transform="translate(0.788574)" fill="#F8761F" fill-opacity="0.2"/>
<path d="M162.176 96.327C158.92 90.725 154.34 86.234 148.614 82.853C144.335 80.362 139.898 78.781 134.898 78.102V60.302C139.898 58.179 143.001 53.48 143.001 47.998C143.001 40.526 137.009 34.471 129.543 34.471C122.071 34.471 115.974 40.526 115.974 47.998C115.974 53.48 118.898 58.179 123.898 60.302V78.11C119.898 78.688 115.75 79.935 111.962 81.851C104.225 75.975 78.8555 56.698 64.0145 45.439C64.3665 44.17 64.6375 42.862 64.6375 41.482C64.6375 33.206 57.9355 26.498 49.6565 26.498C41.3775 26.498 34.6785 33.206 34.6785 41.482C34.6785 49.757 41.3845 56.467 49.6635 56.467C52.4875 56.467 55.0995 55.641 57.3535 54.283L60.4855 56.659L103.521 87.667C101.246 89.756 99.1275 92.132 97.4325 94.798C93.9975 100.233 91.8985 106.213 91.8985 112.736V114.097C91.8985 118.676 92.7685 122.999 94.2505 127.06C95.5555 130.606 97.4635 133.83 99.8265 136.745L85.5435 151.063C83.4735 150.293 81.2255 150.134 79.0681 150.608C76.9106 151.081 74.9351 152.165 73.3775 153.731C72.299 154.804 71.4443 156.081 70.8627 157.486C70.2811 158.892 69.9843 160.4 69.9895 161.921C69.9905 165.014 71.1955 167.921 73.3835 170.108C74.4559 171.187 75.7318 172.043 77.1374 172.626C78.5429 173.208 80.05 173.506 81.5715 173.502C83.0934 173.506 84.6009 173.208 86.0069 172.625C87.4129 172.043 88.6894 171.187 89.7625 170.108C90.8403 169.035 91.6947 167.759 92.2766 166.354C92.8584 164.948 93.1561 163.442 93.1525 161.921C93.1525 160.724 92.9675 159.556 92.6195 158.446L107.382 143.681C109.406 145.079 111.592 146.256 113.942 147.271C118.577 149.275 123.693 150.496 129.292 150.496H130.318C136.508 150.496 142.347 149.042 147.836 146.068C153.62 142.925 158.147 138.627 161.567 133.14C165.005 127.638 166.898 121.559 166.898 114.871V114.537C166.898 107.958 165.375 101.888 162.176 96.327V96.327ZM144.138 127.3C140.131 131.753 135.525 134.496 130.318 134.496H129.46C126.486 134.496 123.577 133.674 120.729 132.179C117.519 130.533 115.079 128.185 113.082 125.212C111.018 122.294 109.898 119.108 109.898 115.73V114.704C109.898 111.383 110.535 108.234 112.141 105.26C113.858 102.009 116.177 99.481 119.261 97.471C122.289 95.475 125.523 94.496 129.125 94.496H129.46C132.726 94.496 135.818 95.14 138.736 96.633C141.709 98.225 144.138 100.4 146.021 103.261C147.85 106.123 148.938 109.21 149.288 112.573C149.343 113.272 149.371 113.988 149.371 114.672C149.371 119.236 147.627 123.463 144.138 127.3Z" fill="#F8761F"/>
</svg>
