<svg width="159" height="159" viewBox="0 0 159 159" fill="none" xmlns="http://www.w3.org/2000/svg">
<rect width="159" height="159" fill="#293742"/>
<path d="M113.027 97.0725V46.7825H104.645V105.454H138.172V97.0725H113.027ZM87.8816 46.7825H71.1183C68.8953 46.7825 66.7634 47.6655 65.1915 49.2374C63.6197 50.8093 62.7366 52.9412 62.7366 55.1641V97.0725C62.7366 99.2955 63.6197 101.427 65.1915 102.999C66.7634 104.571 68.8953 105.454 71.1183 105.454H75.3091V113.836C75.3091 116.059 76.1922 118.191 77.764 119.763C79.3359 121.334 81.4678 122.218 83.6908 122.218H92.0725V113.836H83.6908V105.454H87.8816C90.1046 105.454 92.2365 104.571 93.8083 102.999C95.3802 101.427 96.2633 99.2955 96.2633 97.0725V55.1641C96.2633 52.9412 95.3802 50.8093 93.8083 49.2374C92.2365 47.6655 90.1046 46.7825 87.8816 46.7825ZM71.1183 97.0725V55.1641H87.8816V97.0725H71.1183ZM45.9733 105.454H20.8282V97.0725H45.9733V80.3092H29.2099C26.987 80.3092 24.855 79.4261 23.2832 77.8542C21.7113 76.2824 20.8282 74.1504 20.8282 71.9275V55.1641C20.8282 52.9412 21.7113 50.8093 23.2832 49.2374C24.855 47.6655 26.987 46.7825 29.2099 46.7825H54.3549V55.1641H29.2099V71.9275H45.9733C48.1962 71.9275 50.3281 72.8106 51.9 74.3824C53.4719 75.9543 54.3549 78.0862 54.3549 80.3092V97.0725C54.3549 99.2955 53.4719 101.427 51.9 102.999C50.3281 104.571 48.1962 105.454 45.9733 105.454Z" fill="white"/>
</svg>
