<svg width="392" height="392" viewBox="0 0 392 392" fill="none" xmlns="http://www.w3.org/2000/svg">
<rect width="392" height="392" fill="#5E8E3E" fill-opacity="0.2"/>
<g clip-path="url(#clip0_345_86)">
<path d="M291.774 107.34C291.573 105.88 290.294 105.072 289.237 104.983C281.443 104.397 273.649 103.816 265.854 103.24C265.854 103.24 250.347 87.845 248.645 86.141C246.942 84.438 243.616 84.956 242.325 85.336C242.135 85.392 238.937 86.379 233.647 88.016C228.467 73.11 219.325 59.412 203.242 59.412C202.798 59.412 202.341 59.43 201.884 59.456C197.31 53.407 191.644 50.779 186.75 50.779C149.285 50.779 131.386 97.614 125.774 121.414C111.216 125.925 100.874 129.132 99.5531 129.547C91.4271 132.096 91.1701 132.352 90.1031 140.009C89.3001 145.806 68.0381 310.235 68.0381 310.235L233.716 341.277L323.486 321.857C323.486 321.857 291.973 108.8 291.775 107.34H291.774ZM224.49 90.848L210.471 95.187C210.476 94.199 210.481 93.227 210.481 92.164C210.481 82.9 209.195 75.441 207.132 69.528C215.419 70.568 220.938 79.997 224.49 90.848ZM196.852 71.365C199.156 77.138 200.654 85.423 200.654 96.603C200.654 97.175 200.649 97.698 200.644 98.227C191.527 101.051 181.62 104.117 171.691 107.193C177.266 85.677 187.716 75.285 196.852 71.365V71.365ZM185.721 60.828C187.338 60.828 188.967 61.377 190.526 62.45C178.519 68.1 165.649 82.33 160.214 110.747L137.328 117.835C143.694 96.16 158.81 60.828 185.72 60.828H185.721Z" fill="#95BF46"/>
<path d="M289.237 104.983C281.443 104.397 273.649 103.816 265.854 103.24C265.854 103.24 250.347 87.845 248.645 86.141C248.008 85.507 247.149 85.182 246.251 85.042L233.724 341.275L323.486 321.857C323.486 321.857 291.972 108.8 291.774 107.34C291.573 105.88 290.294 105.072 289.237 104.983" fill="#5E8E3E"/>
<path d="M203.242 154.585L192.173 187.511C192.173 187.511 182.475 182.335 170.587 182.335C153.159 182.335 152.282 193.272 152.282 196.028C152.282 211.066 191.482 216.828 191.482 252.052C191.482 279.765 173.905 297.61 150.205 297.61C121.765 297.61 107.221 279.91 107.221 279.91L114.836 254.75C114.836 254.75 129.786 267.585 142.401 267.585C150.644 267.585 153.997 261.095 153.997 256.353C153.997 236.737 121.837 235.862 121.837 203.629C121.837 176.5 141.309 150.247 180.615 150.247C195.76 150.247 203.242 154.585 203.242 154.585" fill="white"/>
</g>
<defs>
<clipPath id="clip0_345_86">
<rect width="256" height="292" fill="white" transform="translate(68 50)"/>
</clipPath>
</defs>
</svg>
