<svg width="37" height="37" viewBox="0 0 37 37" fill="none" xmlns="http://www.w3.org/2000/svg">
<rect width="37" height="37" fill="#FCCA3F" fill-opacity="0.3"/>
<g clip-path="url(#clip0_456_88)">
<path d="M7.625 27.3817L7.80537 27.1362L16.3358 11.3957L16.3538 11.229L12.5935 4.36017C12.2783 3.7848 11.3913 3.9303 11.288 4.57441L7.625 27.3817Z" fill="#FFC24A"/>
<path d="M19.0951 16.4246L21.895 13.6361L19.0943 8.43677C18.8284 7.94459 18.0861 7.9431 17.8231 8.43677L16.3267 11.2118V11.4481L19.095 16.4246H19.0951Z" fill="#F4BD62"/>
<path d="M7.625 27.3816L7.70673 27.3016L8.00376 27.1843L18.9193 16.6088L19.0576 16.2427L16.3346 11.1967L7.625 27.3816Z" fill="#F6820C"/>
<path d="M19.4449 32.7151L29.3237 27.3573L26.5026 10.4617C26.4144 9.93313 25.7475 9.72418 25.3584 10.1032L7.625 27.3816L17.4472 32.7146C17.7525 32.8804 18.0963 32.9675 18.446 32.9675C18.7956 32.9676 19.1395 32.8807 19.4449 32.7151" fill="#FDE068"/>
<path d="M29.2352 27.3123L26.4355 10.5451C26.348 10.0204 25.7934 9.80337 25.4073 10.1795L7.73462 27.3487L17.449 32.6288C17.7519 32.7933 18.0931 32.8798 18.4401 32.8798C18.7871 32.8799 19.1284 32.7937 19.4314 32.6293L29.2353 27.3123L29.2352 27.3123Z" fill="#FCCA3F"/>
<path d="M19.4447 32.5571C19.1393 32.7228 18.7955 32.8097 18.4458 32.8096C18.0962 32.8095 17.7524 32.7225 17.4471 32.5567L7.70401 27.3004L7.625 27.3816L17.4471 32.7146C17.7524 32.8804 18.0962 32.9674 18.4459 32.9675C18.7955 32.9676 19.1394 32.8807 19.4448 32.715L29.3236 27.3573L29.2994 27.2126L19.4448 32.5572L19.4447 32.5571Z" fill="#EEAB37"/>
</g>
<defs>
<clipPath id="clip0_456_88">
<rect width="21.75" height="29" fill="white" transform="translate(7.625 4)"/>
</clipPath>
</defs>
</svg>
