<svg width="159" height="159" viewBox="0 0 159 159" fill="none" xmlns="http://www.w3.org/2000/svg">
<rect width="159" height="159" fill="#202B33"/>
<g clip-path="url(#clip0_201_128)">
<path d="M73.1663 31.2437L29.1933 49.4206C26.748 50.4313 26.7734 53.9009 29.2343 54.8757L73.3908 72.3683C77.2705 73.9055 81.5913 73.9055 85.471 72.3683L129.628 54.8753C132.088 53.9014 132.114 50.4318 129.668 49.4206L85.6959 31.2433C81.6843 29.5851 77.1779 29.5851 73.1663 31.2433" fill="#FFBF00"/>
<path d="M83.3489 81.9206V125.62C83.3489 127.698 85.4461 129.122 87.3802 128.356L136.584 109.276C137.133 109.059 137.604 108.682 137.935 108.194C138.267 107.707 138.444 107.13 138.444 106.541V62.8413C138.444 60.7627 136.347 59.3399 134.412 60.1056L85.2083 79.1846C84.6596 79.402 84.1889 79.7791 83.8573 80.267C83.5256 80.7548 83.3483 81.3309 83.3484 81.9206" fill="#26B5F8"/>
<path d="M71.859 84.1756L57.2565 91.2189L55.7737 91.9349L24.948 106.69C22.9941 107.631 20.5 106.209 20.5 104.041V63.0246C20.5 62.24 20.9029 61.5626 21.4431 61.0524C21.6644 60.8324 21.9154 60.6444 22.1889 60.4939C22.9255 60.0523 23.9764 59.9344 24.8697 60.2876L71.6134 78.7891C73.9895 79.7307 74.1762 83.0567 71.859 84.1751" fill="#ED3049"/>
<path d="M71.859 84.1756L57.2565 91.2188L21.4426 61.0528C21.6639 60.8328 21.915 60.6448 22.1884 60.4943C22.925 60.0527 23.9759 59.9348 24.8692 60.288L71.6129 78.7895C73.989 79.7311 74.1757 83.0571 71.8586 84.1756" fill="black" fill-opacity="0.25"/>
</g>
<defs>
<clipPath id="clip0_201_128">
<rect width="118" height="99" fill="white" transform="translate(20.5 30)"/>
</clipPath>
</defs>
</svg>
