<svg width="160" height="160" viewBox="0 0 160 160" fill="none" xmlns="http://www.w3.org/2000/svg">
<rect width="159" height="159" transform="translate(0.5 0.5)" fill="url(#paint0_linear_262_52)"/>
<path fill-rule="evenodd" clip-rule="evenodd" d="M85.7888 61.8432C85.0939 61.8755 84.428 61.8887 83.7646 61.9442C83.4375 61.9724 83.112 62.0627 82.7932 62.1521C75.7501 64.1315 71.7159 68.9856 70.6359 75.9815C69.5369 83.1007 71.5909 89.3396 77.7345 93.681C82.8155 97.273 88.6113 97.2456 93.7959 93.8044C102.564 87.9855 104.014 74.6953 96.6855 66.7983C93.7619 63.6478 90.1816 61.7802 85.7888 61.8432ZM112.959 100.148C116.793 100.059 118.386 101.354 119.058 105.185C119.606 108.307 118.873 111.15 116.938 113.643C115.429 115.588 113.452 116.53 110.964 115.883C109.114 115.402 107.685 113.237 107.457 110.745C107.33 109.353 107.369 107.92 107.036 106.58C106.672 105.123 106.174 103.614 105.362 102.37C103.499 99.5149 101.034 99.3244 98.1547 101.11C95.5806 102.705 92.8865 104.296 90.0267 105.2C85.1312 106.747 80.1528 106.312 75.3526 104.387C71.5238 102.851 68.447 103.639 65.8183 106.905C63.2997 110.034 61.9928 113.711 62.1394 117.65C62.426 125.314 55.0052 132.654 47.0744 132.811C39.3439 132.965 34.884 127.099 37.4382 119.771C39.5327 113.762 44.058 110.446 50.2199 109.31C53.6023 108.687 56.8182 107.692 59.5827 105.58C61.8578 103.841 63.7635 101.709 64.2472 98.8316C64.4932 97.3723 64.3474 95.5602 63.6732 94.279C58.169 83.8213 58.1764 73.5076 64.1163 63.2652C65.7388 60.4675 64.9785 57.9746 63.2865 55.6408C60.4557 51.7358 56.3204 49.9411 51.7579 49.1178C48.1494 48.4677 44.8009 47.3952 41.9809 44.9544C39.1468 42.5013 37.3951 39.4792 36.8402 35.7498C35.8497 29.0927 41.6827 24.0862 48.9453 25.3947C56.5739 26.7687 61.7518 32.774 62.1088 40.4904C62.3092 44.8285 63.7345 48.7393 67.0407 51.7093C69.6239 54.0299 72.3893 54.8606 76.0052 53.5313C83.6992 50.7047 91.0794 51.6786 97.7588 56.6429C101.933 59.7453 105.098 58.8293 106.575 53.8229C107.169 51.8111 107.243 49.6338 107.441 47.521C107.771 43.9763 109.983 41.7634 113.009 42.0723C113.206 42.093 113.414 42.093 113.601 42.1551C116.722 43.2011 118.222 45.6269 118.905 48.6308C119.614 51.754 119.531 54.8374 116.859 57.0686C116.057 57.7386 114.639 57.9407 113.515 57.9117C107.461 57.7593 104.143 62.355 106.359 68.0357C109.278 75.5152 109.251 82.9434 106.227 90.3939C103.913 96.0936 106.843 100.289 112.959 100.148Z" fill="white"/>
<defs>
<linearGradient id="paint0_linear_262_52" x1="0" y1="0" x2="153.308" y2="159" gradientUnits="userSpaceOnUse">
<stop stop-color="#F96800"/>
<stop offset="1" stop-color="#FBA64C"/>
</linearGradient>
</defs>
</svg>
