<svg width="355" height="355" viewBox="0 0 355 355" fill="none" xmlns="http://www.w3.org/2000/svg">
<rect width="355" height="355" fill="#AF64FF" fill-opacity="0.2"/>
<g clip-path="url(#clip0_441_76)">
<path d="M177.343 189.923C187.472 189.923 197.374 186.919 205.796 181.291C214.218 175.663 220.782 167.663 224.657 158.305C228.532 148.946 229.545 138.648 227.567 128.714C225.589 118.779 220.71 109.654 213.546 102.494C206.381 95.3327 197.254 90.4573 187.319 88.4841C177.384 86.5108 167.086 87.5284 157.729 91.408C148.372 95.2877 140.376 101.855 134.752 110.28C129.128 118.704 126.128 128.608 126.133 138.737C126.133 145.461 127.458 152.119 130.032 158.331C132.605 164.542 136.378 170.186 141.134 174.939C145.889 179.693 151.535 183.463 157.748 186.034C163.961 188.605 170.619 189.926 177.343 189.923V189.923Z" fill="#FFCD00"/>
<path d="M177.661 215.516H177.49C142.363 215.507 111.713 191.682 103.037 157.644C100.466 147.406 92.139 138.737 81.583 138.737H49.5C49.5 209.423 106.803 266.727 177.49 266.727H177.661V215.516V215.516Z" fill="#00ECBB"/>
<path d="M177.343 215.516H177.49C212.62 215.516 243.275 191.687 251.942 157.644C254.539 147.406 262.865 138.737 273.422 138.737H305.504C305.491 209.427 248.181 266.727 177.49 266.727H177.343V215.516V215.516Z" fill="#AF64FF"/>
<path d="M268.009 229.23C256.124 241.116 242.014 250.545 226.485 256.978C210.956 263.41 194.311 266.721 177.503 266.721C160.694 266.721 144.05 263.41 128.52 256.978C112.991 250.545 98.8812 241.116 86.9961 229.23L123.193 193.033C153.193 223.013 201.811 223.013 231.811 193.033L268.009 229.231V229.23Z" fill="#7131FF"/>
</g>
<defs>
<clipPath id="clip0_441_76">
<rect width="256" height="180" fill="white" transform="translate(49.5 87.5)"/>
</clipPath>
</defs>
</svg>
